<?xml version="1.0" encoding="utf-8"?>
<!-- Generator: Adobe Illustrator 23.0.1, SVG Export Plug-In . SVG Version: 6.00 Build 0)  -->
<svg version="1.1" id="Layer_1" xmlns="http://www.w3.org/2000/svg" xmlns:xlink="http://www.w3.org/1999/xlink" x="0px" y="0px"
	 viewBox="0 0 152.5 29.2" style="enable-background:new 0 0 152.5 29.2;" xml:space="preserve">
<style type="text/css">
	.st0{fill:#F49900;}
	.st1{fill:#3B3835;}
</style>
<path class="st0" d="M14.6,3.5c6.1,0,11.1,5,11.1,11.1c0,6.1-5,11.1-11.1,11.1c-6.1,0-11.1-5-11.1-11.1C3.5,8.5,8.5,3.5,14.6,3.5
	 M14.6,0C6.5,0,0,6.5,0,14.6c0,8.1,6.5,14.6,14.6,14.6c8.1,0,14.6-6.5,14.6-14.6C29.2,6.5,22.7,0,14.6,0L14.6,0z"/>
<path class="st0" d="M14.6,10.3c2.4,0,4.3,1.9,4.3,4.3c0,2.4-1.9,4.3-4.3,4.3c-2.4,0-4.3-1.9-4.3-4.3C10.3,12.2,12.2,10.3,14.6,10.3
	 M14.6,6.8c-4.3,0-7.8,3.5-7.8,7.8c0,4.3,3.5,7.8,7.8,7.8c4.3,0,7.8-3.5,7.8-7.8C22.4,10.3,18.9,6.8,14.6,6.8L14.6,6.8z"/>
<g>
	<path class="st1" d="M42.8,21.5L38,9.7h2.6l3.6,8.8l3.6-8.8h2.6l-4.7,11.7H42.8z"/>
	<path class="st1" d="M53.3,7.4c-0.3-0.3-0.5-0.7-0.5-1.1c0-0.4,0.2-0.8,0.5-1.1c0.3-0.3,0.7-0.4,1.1-0.4c0.4,0,0.8,0.1,1.1,0.4
		C55.8,5.5,56,5.9,56,6.3c0,0.4-0.2,0.8-0.5,1.1c-0.3,0.3-0.7,0.5-1.1,0.5C54,7.9,53.6,7.7,53.3,7.4z M55.6,21.5h-2.5V9.7h2.5V21.5z
		"/>
	<path class="st1" d="M66.2,9.6l0,2.5c0,0-0.1,0-0.1,0c-1.2,0-2.1,0.4-2.7,1.2c-0.6,0.8-0.9,1.9-0.9,3.2v5H60V9.7h2.5v2.4
		c0.4-0.7,0.9-1.3,1.6-1.8C64.8,9.8,65.5,9.6,66.2,9.6z"/>
	<path class="st1" d="M72.5,11.7v5.8c0,0.6,0.1,1,0.4,1.3c0.3,0.3,0.7,0.5,1.2,0.5c0.5,0,1-0.3,1.5-0.8l1,1.7
		c-0.9,0.8-1.8,1.2-2.9,1.2c-1,0-1.9-0.4-2.7-1.1c-0.7-0.7-1.1-1.7-1.1-2.9v-5.7h-1.5v-2H70V6.1h2.5v3.7h3.1v2H72.5z"/>
	<path class="st1" d="M86.6,16.1V9.7h2.5v11.7h-2.5v-2.1C86.2,20,85.7,20.6,85,21c-0.7,0.4-1.4,0.6-2.3,0.6c-1.3,0-2.4-0.4-3.2-1.2
		c-0.8-0.8-1.2-2-1.2-3.5V9.7h2.5v6.4c0,2.2,0.9,3.2,2.7,3.2c0.8,0,1.6-0.3,2.2-0.8C86.3,18,86.6,17.2,86.6,16.1z"/>
	<path class="st1" d="M102.8,21.5h-2.2v-1.6c-1,1.2-2.3,1.7-3.9,1.7c-1.2,0-2.2-0.3-3-1c-0.8-0.7-1.2-1.6-1.2-2.8
		c0-1.2,0.4-2,1.3-2.6c0.8-0.6,2-0.9,3.5-0.9h3.2v-0.4c0-1.6-0.9-2.3-2.6-2.3c-1.1,0-2.2,0.4-3.4,1.2l-1.1-1.5
		c1.4-1.1,3-1.7,4.8-1.7c1.4,0,2.5,0.3,3.4,1c0.9,0.7,1.3,1.8,1.3,3.3V21.5z M100.3,17.1v-1h-2.8c-1.8,0-2.7,0.6-2.7,1.7
		c0,0.6,0.2,1,0.7,1.3c0.4,0.3,1.1,0.5,1.8,0.5c0.8,0,1.5-0.2,2.1-0.7C100,18.4,100.3,17.8,100.3,17.1z"/>
	<path class="st1" d="M116.7,9.7V20c0,2.1-0.6,3.6-1.7,4.7c-1.1,1-2.6,1.6-4.3,1.6c-1.8,0-3.4-0.6-4.8-1.7l1.2-1.9
		c1.1,0.9,2.3,1.3,3.5,1.3c1.2,0,2.1-0.3,2.8-0.9c0.7-0.6,1-1.6,1-2.9v-1.5c-0.4,0.7-0.9,1.2-1.6,1.6c-0.7,0.4-1.4,0.6-2.3,0.6
		c-1.6,0-2.8-0.5-3.8-1.6c-1-1.1-1.5-2.4-1.5-4s0.5-3,1.5-4c1-1.1,2.3-1.6,3.8-1.6s2.8,0.6,3.8,1.9V9.7H116.7z M107.6,15.1
		c0,1,0.3,1.8,0.9,2.5c0.6,0.7,1.4,1,2.4,1c1,0,1.8-0.3,2.4-1c0.6-0.7,0.9-1.5,0.9-2.5c0-1-0.3-1.9-0.9-2.6c-0.6-0.7-1.4-1-2.4-1
		c-1,0-1.8,0.4-2.4,1.1C107.9,13.3,107.6,14.2,107.6,15.1z"/>
	<path class="st1" d="M131.5,9.7l-5.7,13.9c-0.3,0.8-0.8,1.4-1.5,1.8c-0.6,0.4-1.3,0.7-2.1,0.7c-1.1,0-2-0.4-2.9-1.2l1.1-2
		c0.5,0.5,1,0.7,1.6,0.7c0.5,0,1-0.2,1.3-0.6c0.3-0.4,0.5-0.8,0.5-1.3c0-0.2-1.6-4.2-4.7-12h2.6l3.5,8.6l3.5-8.6H131.5z"/>
	<path class="st1" d="M136.1,15.1v6.3h-2.5V9.7h2.5v2.1c0.4-0.7,0.9-1.3,1.6-1.7c0.7-0.4,1.5-0.6,2.3-0.6c1.8,0,3.1,0.8,3.8,2.3
		c1.2-1.5,2.6-2.3,4.3-2.3c1.3,0,2.4,0.4,3.2,1.2c0.8,0.8,1.2,2,1.2,3.5v7.2H150V15c0-2.2-0.9-3.2-2.7-3.2c-0.8,0-1.6,0.3-2.2,0.8
		c-0.6,0.5-1,1.3-1,2.3v6.5h-2.5V15c0-1.1-0.2-1.9-0.6-2.5c-0.4-0.5-1-0.8-1.9-0.8s-1.6,0.3-2.2,0.8C136.4,13.2,136.1,14,136.1,15.1
		z"/>
</g>
</svg>
